<svg width="44" height="40" viewBox="0 0 44 40" fill="none" xmlns="http://www.w3.org/2000/svg">
<ellipse cx="21.5773" cy="20" rx="21.5773" ry="20" fill="#D9D9D9"/>
<mask id="mask0_125_14532" style="mask-type:alpha" maskUnits="userSpaceOnUse" x="9" y="9" width="25" height="22">
<rect x="9.80762" y="9.09082" width="23.5389" height="21.8182" fill="#D9D9D9"/>
</mask>
<g mask="url(#mask0_125_14532)">
<path d="M13.1346 28.182C12.6024 28.182 12.1468 28.004 11.7677 27.6479C11.3887 27.2918 11.1992 26.8638 11.1992 26.3638V23.6365H30.5534V26.3638C30.5534 26.8638 30.3639 27.2918 29.9849 27.6479C29.6058 28.004 29.1502 28.182 28.618 28.182H13.1346ZM13.1346 25.4547V26.3638H28.618V25.4547H13.1346ZM20.8763 21.3638C20.2957 21.3638 19.836 21.5153 19.4973 21.8184C19.1586 22.1214 18.5377 22.2729 17.6345 22.2729C16.7313 22.2729 16.1184 22.1214 15.7958 21.8184C15.4733 21.5153 15.0217 21.3638 14.441 21.3638C13.8604 21.3638 13.4008 21.5153 13.0621 21.8184C12.7234 22.1214 12.1024 22.2729 11.1992 22.2729V20.4547C11.7798 20.4547 12.2395 20.3032 12.5782 20.0002C12.9169 19.6971 13.5378 19.5456 14.441 19.5456C15.3442 19.5456 15.9571 19.6971 16.2797 20.0002C16.6023 20.3032 17.0539 20.4547 17.6345 20.4547C18.2151 20.4547 18.6748 20.3032 19.0135 20.0002C19.3522 19.6971 19.9731 19.5456 20.8763 19.5456C21.7795 19.5456 22.4004 19.6971 22.7391 20.0002C23.0778 20.3032 23.5375 20.4547 24.1181 20.4547C24.6988 20.4547 25.1504 20.3032 25.4729 20.0002C25.7955 19.6971 26.4084 19.5456 27.3116 19.5456C28.2148 19.5456 28.8518 19.6971 29.2228 20.0002C29.5937 20.3032 30.0373 20.4547 30.5534 20.4547V22.2729C29.6502 22.2729 29.0454 22.1214 28.7389 21.8184C28.4325 21.5153 27.989 21.3638 27.4083 21.3638C26.8277 21.3638 26.36 21.5153 26.0052 21.8184C25.6503 22.1214 25.0213 22.2729 24.1181 22.2729C23.2149 22.2729 22.594 22.1214 22.2553 21.8184C21.9166 21.5153 21.4569 21.3638 20.8763 21.3638ZM11.1992 18.182V17.2729C11.1992 15.5305 12.0742 14.1858 13.8241 13.2388C15.5741 12.2918 17.9248 11.8184 20.8763 11.8184C23.8278 11.8184 26.1785 12.2918 27.9285 13.2388C29.6784 14.1858 30.5534 15.5305 30.5534 17.2729V18.182H11.1992ZM20.8763 13.6365C18.8764 13.6365 17.203 13.8714 15.8563 14.3411C14.5096 14.8108 13.6507 15.485 13.2798 16.3638H28.4728C28.1019 15.485 27.243 14.8108 25.8963 14.3411C24.5496 13.8714 22.8762 13.6365 20.8763 13.6365Z" fill="#1C1B1F"/>
</g>
</svg>
