<svg width="24" height="21" viewBox="0 0 24 21" fill="none" xmlns="http://www.w3.org/2000/svg">
<rect width="24" height="21" rx="8" fill="#3A00E5"/>
<mask id="mask0_125_14540" style="mask-type:alpha" maskUnits="userSpaceOnUse" x="3" y="2" width="18" height="17">
<rect x="3.70215" y="2.20215" width="16.5961" height="16.5961" fill="#D9D9D9"/>
</mask>
<g mask="url(#mask0_125_14540)">
<path d="M16.1491 11.8833V9.80878H14.0746V8.42578H16.1491V6.35127H17.5321V8.42578H19.6066V9.80878H17.5321V11.8833H16.1491ZM9.92558 10.5003C9.16492 10.5003 8.51376 10.2294 7.97208 9.68777C7.4304 9.14609 7.15957 8.49493 7.15957 7.73427C7.15957 6.97362 7.4304 6.32245 7.97208 5.78078C8.51376 5.2391 9.16492 4.96826 9.92558 4.96826C10.6862 4.96826 11.3374 5.2391 11.8791 5.78078C12.4208 6.32245 12.6916 6.97362 12.6916 7.73427C12.6916 8.49493 12.4208 9.14609 11.8791 9.68777C11.3374 10.2294 10.6862 10.5003 9.92558 10.5003ZM4.39355 16.0323V14.0961C4.39355 13.7042 4.4944 13.3441 4.69609 13.0156C4.89778 12.6872 5.16573 12.4365 5.49996 12.2636C6.21451 11.9063 6.94059 11.6384 7.67819 11.4597C8.4158 11.2811 9.16492 11.1918 9.92558 11.1918C10.6862 11.1918 11.4354 11.2811 12.173 11.4597C12.9106 11.6384 13.6366 11.9063 14.3512 12.2636C14.6854 12.4365 14.9534 12.6872 15.1551 13.0156C15.3568 13.3441 15.4576 13.7042 15.4576 14.0961V16.0323H4.39355ZM5.77656 14.6493H14.0746V14.0961C14.0746 13.9693 14.0429 13.8541 13.9795 13.7503C13.9161 13.6466 13.8326 13.5659 13.7288 13.5083C13.1065 13.1971 12.4784 12.9638 11.8445 12.8082C11.2106 12.6526 10.571 12.5748 9.92558 12.5748C9.28017 12.5748 8.64053 12.6526 8.00666 12.8082C7.37278 12.9638 6.74466 13.1971 6.12231 13.5083C6.01859 13.5659 5.93503 13.6466 5.87164 13.7503C5.80825 13.8541 5.77656 13.9693 5.77656 14.0961V14.6493ZM9.92558 9.11728C10.3059 9.11728 10.6315 8.98186 10.9023 8.71102C11.1732 8.44018 11.3086 8.1146 11.3086 7.73427C11.3086 7.35395 11.1732 7.02836 10.9023 6.75753C10.6315 6.48669 10.3059 6.35127 9.92558 6.35127C9.54525 6.35127 9.21967 6.48669 8.94883 6.75753C8.67799 7.02836 8.54257 7.35395 8.54257 7.73427C8.54257 8.1146 8.67799 8.44018 8.94883 8.71102C9.21967 8.98186 9.54525 9.11728 9.92558 9.11728Z" fill="white"/>
</g>
</svg>
